
<svg xmlns="http://www.w3.org/2000/svg" version="1.1" xmlns:xlink="http://www.w3.org/1999/xlink" preserveAspectRatio="none" x="0px" y="0px" width="1280px" height="720px" viewBox="0 0 1280 720">
<defs>
<image id="FL_40f19d33c0351ce3eae38d49ba272997_jpg" x="0" y="0" width="564" height="321" xlink:href="./изображения/FL_40f19d33c0351ce3eae38d49ba272997_jpg.jpg"/>

<image id="pngwing_com__7__png_________2" x="0" y="0" width="512" height="512" xlink:href="./изображения/pngwing_com__7__png_________2.png"/>

<image id="pngwing_com__8__png________" x="0" y="0" width="2051" height="1963" xlink:href="./изображения/pngwing_com__8__png________.png"/>

<image id="pngwing_com__11__png" x="0" y="0" width="894" height="809" xlink:href="./изображения/pngwing_com__11__png.png"/>
</defs>

<g transform="matrix( 2.3108062744140625, 0, 0, 2.251129150390625, -11,-3) ">
<use xlink:href="#FL_40f19d33c0351ce3eae38d49ba272997_jpg"/>
</g>

<g transform="matrix( 2.6404266357421875, 0, 0, 2.6404266357421875, 908.95,555.65) ">
<g transform="matrix( 0.1216278076171875, 0, 0, 0.1216278076171875, 0,0) ">
<use xlink:href="#pngwing_com__7__png_________2"/>
</g>
</g>

<g transform="matrix( 1, 0, 0, 1, 488.55,594.25) ">
<g transform="matrix( -0.09808349609375, 0, 0, 0.09808349609375, 100.6,-96.25) ">
<use xlink:href="#pngwing_com__8__png________"/>
</g>
</g>

<g transform="matrix( 1, 0, 0, 1, 384.3,536.15) ">
<g transform="matrix( 0.0450897216796875, -0.0450897216796875, 0.0450897216796875, 0.0450897216796875, -38.4,1.9) ">
<use xlink:href="#pngwing_com__11__png"/>
</g>
</g>
</svg>
